<?xml version="1.0" encoding="UTF-8"?>
<!DOCTYPE svg PUBLIC "-//W3C//DTD SVG 1.1//EN" "http://www.w3.org/Graphics/SVG/1.1/DTD/svg11.dtd">
<svg version="1.1" xmlns="http://www.w3.org/2000/svg" xmlns:xlink="http://www.w3.org/1999/xlink" x="0" y="0" width="1000" height="1000" viewBox="0, 0, 1000, 1000">
  <g id="Background">
    <rect x="0" y="0" width="1000" height="1000" fill="#FFFFFF" fill-opacity="0"/>
  </g>
  <g id="Background"/>
  <g id="Livello_1">
    <path d="M599.486,588.377 C599.44,588.423 599.403,588.469 599.362,588.511 C599.283,588.589 599.2,588.654 599.122,588.727 C566.926,620.928 529.492,625.733 510.047,625.733 C440.716,625.733 384.312,569.328 384.312,500.002 C384.312,430.672 440.716,374.267 510.047,374.267 C529.418,374.267 567.341,379.695 603.701,416.055 C604.679,417.027 605.707,417.913 606.763,418.747 L689.968,500.51 z M77.986,500.002 C77.986,262.44 271.253,69.169 508.815,69.169 C614.671,69.169 716.395,107.917 795.326,178.262 L906.572,290.158 L739.604,452.308 L649.315,363.583 C648.181,362.467 646.964,361.48 645.723,360.554 C593.713,312.518 538.844,305.099 510.047,305.099 C402.577,305.099 315.143,392.533 315.143,500.002 C315.143,607.472 402.577,694.901 510.047,694.901 C540.061,694.901 597.697,687.491 647.374,638.261 C647.466,638.174 647.577,638.095 647.669,638.003 L739.313,549.001 L906.489,713.282 L811.438,807.194 C810.174,808.112 808.948,809.094 807.795,810.206 C727.107,887.993 620.924,930.831 508.815,930.831 C271.253,930.831 77.986,737.565 77.986,500.002 M990.193,709.893 C990.17,709.63 990.11,709.367 990.077,709.109 C989.981,708.265 989.875,707.421 989.713,706.591 C989.639,706.236 989.538,705.881 989.455,705.526 C989.289,704.797 989.132,704.064 988.915,703.345 C988.795,702.934 988.634,702.538 988.496,702.132 C988.274,701.477 988.067,700.822 987.804,700.177 C987.624,699.729 987.398,699.305 987.2,698.867 C986.933,698.277 986.679,697.682 986.375,697.105 C986.135,696.644 985.849,696.211 985.581,695.759 C985.272,695.224 984.977,694.685 984.627,694.164 C984.327,693.702 983.981,693.264 983.654,692.817 C983.294,692.333 982.953,691.839 982.57,691.369 C982.211,690.926 981.805,690.507 981.417,690.083 C981.067,689.691 980.744,689.285 980.371,688.907 C980.311,688.847 980.242,688.796 980.186,688.741 C980.122,688.676 980.071,688.607 980.011,688.547 L788.953,500.8 L979.859,315.4 C979.9,315.359 979.937,315.317 979.979,315.276 C980.034,315.22 980.094,315.174 980.154,315.119 C980.615,314.658 981.026,314.164 981.459,313.68 C981.773,313.334 982.114,312.998 982.409,312.638 C982.861,312.089 983.262,311.522 983.672,310.955 C983.954,310.577 984.253,310.213 984.512,309.825 C984.904,309.24 985.24,308.635 985.591,308.036 C985.821,307.644 986.079,307.261 986.296,306.86 C986.628,306.228 986.909,305.583 987.2,304.942 C987.38,304.55 987.587,304.167 987.749,303.766 C988.039,303.065 988.274,302.346 988.51,301.631 C988.634,301.276 988.782,300.93 988.883,300.575 C989.169,299.63 989.395,298.675 989.598,297.716 C989.625,297.578 989.672,297.444 989.699,297.306 C989.916,296.204 990.077,295.092 990.188,293.976 C990.211,293.723 990.207,293.46 990.225,293.206 C990.29,292.349 990.349,291.486 990.349,290.629 C990.349,290.61 990.354,290.596 990.354,290.578 C990.354,289.84 990.294,289.098 990.248,288.36 C990.225,288.023 990.23,287.687 990.197,287.355 C989.999,285.164 989.584,282.992 988.961,280.862 C988.892,280.627 988.795,280.396 988.722,280.161 C988.463,279.345 988.196,278.529 987.878,277.726 C987.74,277.39 987.569,277.062 987.426,276.73 C987.122,276.043 986.826,275.351 986.481,274.678 C986.292,274.314 986.061,273.964 985.858,273.604 C985.508,272.981 985.166,272.354 984.77,271.75 C984.535,271.386 984.253,271.04 984.004,270.68 C983.594,270.104 983.193,269.518 982.741,268.956 C982.473,268.619 982.164,268.305 981.883,267.978 C981.45,267.48 981.044,266.973 980.583,266.498 C980.523,266.438 980.458,266.387 980.398,266.332 C980.366,266.29 980.334,266.249 980.292,266.207 L843.43,128.548 C843.209,128.322 842.96,128.128 842.73,127.911 C842.462,127.658 842.232,127.39 841.96,127.151 C750.251,45.153 631.94,0 508.815,0 C233.113,0 8.818,224.3 8.818,500.002 C8.818,775.7 233.113,1000 508.815,1000 C636.883,1000 758.261,951.799 851.343,864.189 C853.008,863.046 854.613,861.769 856.102,860.298 L980.076,737.814 C980.136,737.758 980.186,737.694 980.242,737.634 C980.306,737.569 980.375,737.518 980.435,737.454 C980.827,737.053 981.173,736.624 981.547,736.214 C981.902,735.812 982.28,735.42 982.612,735.005 C983.018,734.512 983.373,733.995 983.742,733.488 C984.046,733.064 984.378,732.649 984.664,732.211 C985.019,731.671 985.328,731.113 985.651,730.56 C985.9,730.131 986.167,729.712 986.398,729.278 C986.711,728.683 986.969,728.075 987.246,727.471 C987.435,727.051 987.647,726.641 987.818,726.216 C988.081,725.562 988.293,724.893 988.519,724.229 C988.653,723.837 988.809,723.454 988.925,723.058 C989.141,722.334 989.298,721.596 989.464,720.853 C989.547,720.508 989.649,720.171 989.718,719.82 C989.879,718.99 989.985,718.156 990.082,717.317 C990.114,717.054 990.17,716.796 990.193,716.533 C990.299,715.435 990.354,714.324 990.354,713.222 L990.354,713.217 L990.354,713.213 C990.354,712.106 990.299,710.995 990.193,709.893" fill="#000000"/>
    <path d="M947.012,913.314 C922.759,913.314 903.549,932.404 903.549,956.656 C903.549,980.909 922.759,999.999 947.012,999.999 C971.145,999.999 990.355,980.909 990.355,956.656 C990.355,932.404 971.145,913.314 947.012,913.314 z M947.012,991.835 C927.442,991.835 911.834,976.227 911.834,956.656 C911.834,937.086 927.442,921.478 947.012,921.478 C966.582,921.478 982.19,937.086 982.19,956.656 C982.19,976.227 966.582,991.835 947.012,991.835 z M965.742,947.532 C965.742,938.767 958.778,933.004 948.213,933.004 L931.644,933.004 L931.644,979.348 L941.129,979.348 L941.129,960.738 L954.816,979.348 L966.342,979.348 L952.655,961.699 C960.579,960.738 965.742,955.096 965.742,947.532 z M941.129,940.688 L947.492,940.688 C952.655,940.688 956.137,943.329 956.137,947.892 C956.137,952.454 952.655,955.336 947.492,955.336 L941.129,955.336 z" fill="#000000"/>
  </g>
</svg>
