<?xml version="1.0" encoding="UTF-8"?>
<!DOCTYPE svg PUBLIC "-//W3C//DTD SVG 1.1//EN" "http://www.w3.org/Graphics/SVG/1.1/DTD/svg11.dtd">
<svg version="1.1" xmlns="http://www.w3.org/2000/svg" xmlns:xlink="http://www.w3.org/1999/xlink" x="0" y="0" width="200" height="200" viewBox="0, 0, 200, 200">
  <g id="Background">
    <rect x="0" y="0" width="200" height="200" fill="#FFFFFF" fill-opacity="0"/>
  </g>
  <g id="Background"/>
  <g id="Layer_1">
    <path d="M66.676,100 C66.676,81.591 81.595,66.664 100.004,66.664 C118.413,66.664 133.34,81.591 133.34,100 C133.34,118.409 118.413,133.336 100.004,133.336 C81.595,133.336 66.676,118.409 66.676,100 M48.655,100 C48.655,128.36 71.644,151.349 100.004,151.349 C128.364,151.349 151.353,128.36 151.353,100 C151.353,71.64 128.364,48.651 100.004,48.651 C71.644,48.651 48.655,71.64 48.655,100 M141.386,46.615 C141.383,53.243 146.753,58.617 153.381,58.62 C160.008,58.623 165.383,53.252 165.386,46.625 C165.388,39.997 160.018,34.623 153.39,34.62 L153.386,34.62 C146.761,34.623 141.391,39.991 141.386,46.615 M59.604,181.398 C49.854,180.954 44.555,179.33 41.034,177.958 C36.365,176.14 33.034,173.975 29.531,170.478 C26.029,166.98 23.861,163.652 22.051,158.983 C20.678,155.463 19.054,150.162 18.611,140.413 C18.126,129.872 18.03,126.706 18.03,100.001 C18.03,73.296 18.134,70.138 18.611,59.589 C19.055,49.839 20.691,44.549 22.051,41.018 C23.869,36.35 26.034,33.018 29.531,29.516 C33.029,26.014 36.357,23.846 41.034,22.036 C44.554,20.663 49.854,19.039 59.604,18.596 C70.145,18.111 73.311,18.014 100.004,18.014 C126.697,18.014 129.866,18.119 140.416,18.596 C150.166,19.04 155.456,20.676 158.986,22.036 C163.655,23.846 166.986,26.018 170.489,29.516 C173.991,33.014 176.151,36.35 177.969,41.018 C179.342,44.538 180.966,49.839 181.409,59.589 C181.894,70.138 181.99,73.296 181.99,100.001 C181.99,126.706 181.894,129.863 181.409,140.413 C180.965,150.162 179.333,155.462 177.969,158.983 C176.151,163.652 173.986,166.983 170.489,170.478 C166.991,173.972 163.655,176.14 158.986,177.958 C155.466,179.33 150.166,180.954 140.416,181.398 C129.875,181.882 126.709,181.979 100.004,181.979 C73.299,181.979 70.142,181.882 59.604,181.398 M58.776,0.606 C48.13,1.09 40.856,2.778 34.503,5.25 C27.924,7.803 22.354,11.228 16.789,16.785 C11.223,22.342 7.807,27.92 5.254,34.499 C2.782,40.856 1.094,48.126 0.61,58.772 C0.117,69.434 0.004,72.843 0.004,100 C0.004,127.157 0.117,130.566 0.61,141.228 C1.094,151.874 2.782,159.144 5.254,165.501 C7.807,172.076 11.224,177.661 16.789,183.215 C22.354,188.77 27.924,192.19 34.503,194.75 C40.868,197.222 48.13,198.91 58.776,199.394 C69.444,199.879 72.847,200 100.004,200 C127.161,200 130.57,199.887 141.232,199.394 C151.878,198.91 159.148,197.222 165.505,194.75 C172.08,192.19 177.654,188.772 183.219,183.215 C188.785,177.658 192.194,172.076 194.754,165.501 C197.226,159.144 198.922,151.874 199.398,141.228 C199.883,130.558 199.996,127.157 199.996,100 C199.996,72.843 199.883,69.434 199.398,58.772 C198.914,48.126 197.226,40.852 194.754,34.499 C192.194,27.924 188.776,22.35 183.219,16.785 C177.662,11.219 172.08,7.803 165.513,5.25 C159.148,2.778 151.878,1.082 141.24,0.606 C130.578,0.121 127.169,0 100.012,0 C72.855,0 69.444,0.113 58.776,0.606" fill="#000000"/>
  </g>
</svg>
