<svg id="Livello_1" data-name="Livello 1" xmlns="http://www.w3.org/2000/svg" viewBox="0 0 425.8 340.73"><path d="M249.87,420.37H82.25c-27,0-45.11-17.91-45.12-44.9q-.06-125.47,0-250.93c0-27,18-44.89,45.12-44.9H417.49c27.4,0,45.38,17.83,45.39,45.16q0,125,0,249.93c0,28-17.75,45.63-45.89,45.63ZM420.14,162.15c-2.32,1.53-3.83,2.51-5.33,3.51q-80.28,53.52-160.5,107.12c-3.27,2.19-5.41,2.24-8.72,0Q165.4,219.09,85,165.65c-1.45-1-2.94-1.87-5-3.18v215H420.14Zm-17.58-39.47H97.74c1.19.89,1.71,1.31,2.25,1.67q73.41,49,146.77,98c2.84,1.9,4.56,1.24,7-.38q37.23-25,74.58-49.78Z" transform="translate(-37.1 -79.63)"/></svg>