<?xml version="1.0" encoding="UTF-8"?>
<!DOCTYPE svg PUBLIC "-//W3C//DTD SVG 1.1//EN" "http://www.w3.org/Graphics/SVG/1.1/DTD/svg11.dtd">
<svg version="1.1" xmlns="http://www.w3.org/2000/svg" xmlns:xlink="http://www.w3.org/1999/xlink" x="0" y="0" width="200" height="200" viewBox="0, 0, 200, 200">
  <g id="Background">
    <rect x="0" y="0" width="200" height="200" fill="#FFFFFF" fill-opacity="0"/>
  </g>
  <g id="Background"/>
  <g id="Layer_1">
    <path d="M149.009,0.042 L123.073,0 C93.936,0 75.106,19.319 75.106,49.22 L75.106,71.914 L49.029,71.914 C46.775,71.914 44.95,73.741 44.95,75.994 L44.95,108.875 C44.95,111.128 46.777,112.953 49.029,112.953 L75.106,112.953 L75.106,195.922 C75.106,198.175 76.93,200 79.184,200 L113.207,200 C115.46,200 117.285,198.173 117.285,195.922 L117.285,112.953 L147.775,112.953 C150.028,112.953 151.853,111.128 151.853,108.875 L151.865,75.994 C151.865,74.912 151.435,73.876 150.671,73.11 C149.908,72.345 148.867,71.914 147.785,71.914 L117.285,71.914 L117.285,52.676 C117.285,43.43 119.488,38.736 131.533,38.736 L149.005,38.73 C151.256,38.73 153.081,36.903 153.081,34.651 L153.081,4.12 C153.081,1.871 151.258,0.046 149.009,0.042 z" fill="#000000"/>
  </g>
</svg>
