<?xml version="1.0" encoding="UTF-8"?>
<!DOCTYPE svg PUBLIC "-//W3C//DTD SVG 1.1//EN" "http://www.w3.org/Graphics/SVG/1.1/DTD/svg11.dtd">
<svg version="1.1" xmlns="http://www.w3.org/2000/svg" xmlns:xlink="http://www.w3.org/1999/xlink" x="0" y="0" width="1000" height="600" viewBox="0, 0, 1000, 600">
  <g id="Background">
    <rect x="0" y="0" width="1000" height="600" fill="#FFFFFF" fill-opacity="0"/>
  </g>
  <g id="Livello_1">
    <g>
      <g>
        <path d="M126.527,252.883 C147.727,252.883 169.6,248.121 189.117,238.258 L180.704,179.421 C163.206,189.624 145.708,194.725 129.219,194.725 C90.184,194.725 61.245,166.497 61.245,128.746 C61.245,90.654 90.184,62.766 128.883,62.766 C146.044,62.766 163.206,67.867 177.339,75.69 L186.089,16.852 C169.6,9.37 149.409,4.609 128.21,4.609 C55.861,4.609 0.001,59.025 0.001,128.746 C0.001,198.466 55.188,252.883 126.527,252.883 z" fill="#5225E3"/>
        <path d="M319.682,85.893 C301.175,85.893 285.695,92.695 274.927,104.939 L274.927,2.228 L217.048,8.69 L217.048,247.781 L274.927,247.781 L274.927,159.015 C274.927,144.731 284.013,135.208 297.137,135.208 C309.924,135.208 318.673,144.051 318.673,157.995 L318.673,247.781 L376.552,247.781 L376.552,150.512 C376.552,111.741 357.371,85.893 319.682,85.893 z" fill="#5225E3"/>
        <path d="M437.796,71.268 C456.64,71.268 471.783,56.303 471.783,38.278 C471.783,20.253 456.64,5.288 437.796,5.288 C418.952,5.288 403.809,20.253 403.809,38.278 C403.809,56.303 418.952,71.268 437.796,71.268 z M408.52,247.781 L466.399,247.781 L466.399,87.253 L408.52,93.374 z" fill="#5225E3"/>
        <path d="M599.656,85.893 C579.802,85.893 563.65,94.055 552.545,108.68 L552.545,87.593 L501.059,93.035 L501.059,320.903 L558.939,320.903 L558.939,236.558 C569.707,246.421 583.503,252.202 599.656,252.202 C641.046,252.202 675.033,215.812 675.033,169.218 C675.033,122.284 641.383,85.893 599.656,85.893 z M587.878,203.568 C568.697,203.568 554.227,188.603 554.227,169.218 C554.227,149.492 568.697,134.527 587.878,134.527 C606.722,134.527 621.192,149.492 621.192,169.218 C621.192,188.603 606.722,203.568 587.878,203.568 z" fill="#5225E3"/>
        <path d="M395.644,400.854 C416.844,390.31 429.631,371.945 429.631,349.158 C429.631,312.087 400.019,286.579 355.263,286.579 L267.435,286.579 L267.435,524.651 L356.273,524.651 C405.066,524.651 437.034,497.442 437.034,458.331 C437.034,432.143 421.218,411.397 395.644,400.854 z M344.495,332.493 C360.647,332.493 372.089,342.356 372.089,356.98 C372.089,371.945 360.647,382.148 344.495,382.148 L326.324,382.148 L326.324,332.493 z M347.524,478.737 L326.324,478.737 L326.324,427.381 L347.524,427.381 C364.349,427.381 376.127,437.925 376.127,453.229 C376.127,468.194 364.349,478.737 347.524,478.737 z" fill="#5225E3"/>
        <path d="M553.221,367.183 L526.3,456.97 L499.38,367.183 L439.145,367.183 L498.707,522.609 L462.7,597.772 L523.271,597.772 L613.455,367.183 z" fill="#5225E3"/>
        <path d="M735.937,412.001 L735.937,366.087 L698.585,366.087 L698.585,311.331 L640.706,339.219 L640.706,366.087 L622.535,366.087 L622.535,412.001 L640.706,412.001 L640.706,464.036 C640.706,501.788 660.223,525.935 702.287,525.935 C715.41,525.935 727.188,523.554 735.937,520.153 L735.937,472.539 C730.553,474.58 723.823,475.94 717.766,475.94 C704.642,475.94 698.585,468.798 698.585,455.874 L698.585,412.001 z" fill="#5225E3"/>
        <path d="M836.099,487.239 C822.639,487.239 812.544,482.478 805.477,474.656 L912.823,439.965 C908.785,390.31 874.461,362.082 832.398,362.082 C783.604,362.082 747.598,399.153 747.598,446.087 C747.598,493.361 785.287,529.752 835.426,529.752 C862.347,529.752 888.594,519.209 907.102,504.925 L891.623,464.112 C870.423,481.118 851.579,487.239 836.099,487.239 z M833.071,404.255 C844.512,404.255 854.271,409.696 859.991,418.539 L796.392,439.625 C799.084,418.879 813.217,404.255 833.071,404.255 z" fill="#5225E3"/>
        <path d="M91.199,529.752 C117.891,529.752 142.73,518.886 160.525,501.651 L182.027,526.38 L250.611,526.38 L190.183,460.81 C200.192,437.954 209.09,408.354 209.09,367.138 L151.998,367.138 C151.998,381.751 151.627,408.728 149.774,419.219 L77.482,336.788 L176.466,336.788 L176.466,286.58 L12.605,286.58 L12.605,344.282 L55.609,387.371 C30.77,394.865 0,414.349 0,451.817 C0,493.033 25.951,529.752 91.199,529.752 z M90.087,479.544 C67.843,479.544 58.946,468.304 58.946,452.567 C58.946,439.827 68.214,429.336 87.492,426.339 L126.418,467.929 C116.408,476.921 101.208,479.544 90.087,479.544 z" fill="#5225E3"/>
      </g>
      <path d="M972.52,474.563 C957.143,474.563 944.964,486.666 944.964,502.043 C944.964,517.419 957.143,529.522 972.52,529.522 C987.821,529.522 1000,517.419 1000,502.043 C1000,486.666 987.821,474.563 972.52,474.563 z M972.52,524.346 C960.112,524.346 950.216,514.45 950.216,502.043 C950.216,489.635 960.112,479.739 972.52,479.739 C984.928,479.739 994.824,489.635 994.824,502.043 C994.824,514.45 984.928,524.346 972.52,524.346 z M984.395,496.257 C984.395,490.7 979.98,487.047 973.281,487.047 L962.777,487.047 L962.777,516.43 L968.79,516.43 L968.79,504.631 L977.468,516.43 L984.776,516.43 L976.098,505.24 C981.122,504.631 984.395,501.053 984.395,496.257 z M968.79,491.918 L972.825,491.918 C976.098,491.918 978.305,493.593 978.305,496.486 C978.305,499.378 976.098,501.205 972.825,501.205 L968.79,501.205 z" fill="#5225E3"/>
    </g>
  </g>
</svg>
